<?xml version="1.0" encoding="UTF-8"?>
<svg id="_레이어_1" data-name=" 레이어 1" xmlns="http://www.w3.org/2000/svg" version="1.1" viewBox="0 0 1000 1000">
  <defs>
    <style>
      .cls-1 {
        fill: #3853de;
        stroke-width: 0px;
      }
    </style>
  </defs>
  <path class="cls-1" d="M283.5,513.2c-.3-.2-.5-.4-.8-.6-.3-.2-.5-.4-.8-.6-.3-.2-.5-.4-.8-.6-.3-.2-.5-.4-.8-.6-.3-.2-.5-.4-.8-.6-.3-.2-.5-.4-.8-.6-.3-.2-.5-.4-.8-.6-.3-.2-.5-.4-.8-.6-.3-.2-.5-.4-.8-.6-.3-.2-.5-.4-.8-.6-.3-.2-.5-.4-.8-.6-.3-.2-.5-.4-.8-.6-.3-.2-.5-.4-.8-.6-.3-.2-.5-.4-.8-.6-.3-.2-.5-.4-.8-.6-.3-.2-.5-.4-.8-.6-.3-.2-.5-.4-.8-.6-.3-.2-.5-.4-.8-.6-.3-.2-.5-.4-.8-.6-.3-.2-.5-.4-.8-.6-.3-.2-.5-.4-.8-.6-.3-.2-.5-.4-.8-.6-.3-.2-.5-.4-.8-.6-.3-.2-.5-.4-.8-.6-.3-.2-.5-.4-.8-.6-.3-.2-.5-.4-.8-.6-.3-.2-.5-.4-.8-.6-.1,0-.2-.2-.3-.3.2-.2.4-.3.6-.5.3-.2.5-.4.8-.6.3-.2.5-.4.8-.6.3-.2.5-.4.8-.6.3-.2.5-.4.8-.6.3-.2.5-.4.8-.6.3-.2.5-.4.8-.6.3-.2.5-.4.8-.6.3-.2.5-.4.8-.6.3-.2.5-.4.8-.6.3-.2.5-.4.8-.6.3-.2.5-.4.8-.6.3-.2.5-.4.8-.6.3-.2.5-.4.8-.6.3-.2.5-.4.8-.6.3-.2.5-.4.8-.6.3-.2.5-.4.8-.6.3-.2.5-.4.8-.6.3-.2.5-.4.8-.6.3-.2.5-.4.8-.6.3-.2.5-.4.8-.6.3-.2.5-.4.8-.6.3-.2.5-.4.8-.6.3-.2.5-.4.8-.6.3-.2.5-.4.8-.6.3-.2.5-.4.8-.6.3-.2.5-.4.8-.6.3-.2.5-.4.8-.6.3-.2.5-.4.8-.6,6.4-4.7,10.5-12.3,10.5-20.8,0-14.3-11.6-25.9-25.9-25.9s-11.7,2.1-16.1,5.7c-.3.2-.5.4-.8.6-.3.2-.5.4-.8.6-.3.2-.5.4-.8.6-.3.2-.5.4-.8.6-.3.2-.5.4-.8.6-.3.2-.5.4-.8.6-.3.2-.5.4-.8.6-.3.2-.5.4-.8.6-.3.2-.5.4-.8.6-.3.2-.5.4-.8.6-.3.2-.5.4-.8.6-.3.2-.5.4-.8.6-.3.2-.5.4-.8.6-.3.2-.5.4-.8.6-.3.2-.5.4-.8.6-.3.2-.5.4-.8.6-.3.2-.5.4-.8.6-.3.2-.5.4-.8.6-.3.2-.5.4-.8.6-.3.2-.5.4-.8.6-.3.2-.5.4-.8.6-.3.2-.5.4-.8.6-.3.2-.5.4-.8.6-.3.2-.5.4-.8.6-.3.2-.5.4-.8.6-.3.2-.5.4-.8.6-.3.2-.5.4-.8.6-.3.2-.5.4-.8.6-.3.2-.5.4-.8.6-.3.2-.5.4-.8.6-.3.2-.5.4-.8.6-.3.2-.5.4-.8.6-.3.2-.5.4-.8.6-.3.2-.5.4-.8.6-.3.2-.5.4-.8.6-.3.2-.5.4-.8.6-.3.2-.5.4-.8.6-.3.2-.5.4-.8.6-.3.2-.5.4-.8.6-.3.2-.5.4-.8.6-.3.2-.5.4-.8.6-.3.2-.5.4-.8.6-.3.2-.5.4-.8.6,0,0,0,0-.1,0h0c0-.3,0-.4,0-.6,0-.2,0-.3,0-.5s0-.3,0-.5c0-.2,0-.3,0-.5s0-.3,0-.5c0-.2,0-.3,0-.5s0-.3,0-.5c0-.2,0-.3,0-.5s0-.3,0-.5c0-.2,0-.3,0-.5s0-.3,0-.5c0-.2,0-.3,0-.5,0-14.3-11.6-25.9-25.9-25.9s-25.9,11.6-25.9,25.9,0,.3,0,.5c0,.2,0,.3,0,.5s0,.3,0,.5c0,.2,0,.3,0,.5s0,.3,0,.5c0,.2,0,.3,0,.5s0,.3,0,.5c0,.2,0,.3,0,.5s0,.3,0,.5c0,.2,0,.3,0,.5s0,.3,0,.5c0,.2,0,.3,0,.5s0,.3,0,.5c0,.2,0,.3,0,.5s0,.3,0,.5c0,.2,0,.3,0,.5s0,.3,0,.5c0,.2,0,.3,0,.5s0,.3,0,.5c0,.2,0,.3,0,.5s0,.3,0,.5c0,.2,0,.3,0,.5s0,.3,0,.5c0,.2,0,.3,0,.5s0,.3,0,.5c0,.2,0,.3,0,.5s0,.3,0,.5c0,.2,0,.3,0,.5s0,.3,0,.5c0,.2,0,.3,0,.5s0,.3,0,.5c0,.2,0,.3,0,.5s0,.3,0,.5c0,.2,0,.3,0,.5s0,.3,0,.5c0,.2,0,.3,0,.5s0,.3,0,.5c0,.2,0,.3,0,.5s0,.3,0,.5c0,.2,0,.3,0,.5s0,.3,0,.5c0,.2,0,.3,0,.5s0,.3,0,.5c0,.2,0,.3,0,.5s0,.3,0,.5c0,.2,0,.3,0,.5s0,.3,0,.5c0,.2,0,.3,0,.5s0,.3,0,.5c0,.2,0,.3,0,.5s0,.3,0,.5c0,.2,0,.3,0,.5s0,.3,0,.5c0,.2,0,.3,0,.5s0,.3,0,.5c0,.2,0,.3,0,.5s0,.3,0,.5c0,.2,0,.3,0,.5s0,.3,0,.5c0,.2,0,.3,0,.5s0,.3,0,.5c0,.2,0,.3,0,.5s0,.3,0,.5c0,.2,0,.3,0,.5s0,.3,0,.5c0,.2,0,.3,0,.5s0,.3,0,.5c0,.2,0,.3,0,.5s0,.3,0,.5c0,.2,0,.3,0,.5s0,.3,0,.5c0,.2,0,.3,0,.5s0,.3,0,.5c0,.2,0,.3,0,.5s0,.3,0,.5c0,.2,0,.3,0,.5s0,.3,0,.5c0,.2,0,.3,0,.5s0,.3,0,.5c0,.2,0,.3,0,.5s0,.3,0,.5c0,.2,0,.3,0,.5s0,.3,0,.5c0,.2,0,.3,0,.5s0,.3,0,.5c0,.2,0,.3,0,.5s0,.3,0,.5c0,.2,0,.3,0,.5s0,.3,0,.5c0,.2,0,.3,0,.5s0,.3,0,.5c0,.2,0,.3,0,.5s0,.3,0,.5c0,.2,0,.3,0,.5s0,.3,0,.5c0,.2,0,.3,0,.5s0,.3,0,.5c0,.2,0,.3,0,.5s0,.3,0,.5c0,.2,0,.3,0,.5s0,.3,0,.5c0,.2,0,.3,0,.5s0,.3,0,.5c0,.2,0,.3,0,.5s0,.3,0,.5c0,.2,0,.3,0,.5s0,.3,0,.5c0,.2,0,.3,0,.5s0,.3,0,.5c0,.2,0,.3,0,.5s0,.3,0,.5c0,.2,0,.3,0,.5s0,.3,0,.5c0,.2,0,.3,0,.5s0,.3,0,.5c0,.2,0,.3,0,.5s0,.3,0,.5c0,.2,0,.3,0,.5s0,.3,0,.5c0,.2,0,.3,0,.5s0,.3,0,.5c0,.2,0,.3,0,.5s0,.3,0,.5c0,.2,0,.3,0,.5s0,.3,0,.5c0,.2,0,.3,0,.5s0,.3,0,.5c0,.2,0,.3,0,.5s0,.3,0,.5c0,.2,0,.3,0,.5s0,.3,0,.5c0,.2,0,.3,0,.5s0,.3,0,.5c0,.2,0,.3,0,.5s0,.3,0,.5c0,.2,0,.3,0,.5s0,.3,0,.5c0,.2,0,.3,0,.5s0,.3,0,.5c0,.2,0,.3,0,.5s0,.3,0,.5c0,.2,0,.3,0,.5s0,.3,0,.5c0,.2,0,.3,0,.5s0,.3,0,.5c0,.2,0,.3,0,.5s0,.3,0,.5c0,.2,0,.3,0,.5s0,.3,0,.5c0,.2,0,.3,0,.5s0,.3,0,.5c0,.2,0,.3,0,.5,0,14.3,11.6,25.9,25.9,25.9s25.9-11.6,25.9-25.9,0-.3,0-.5c0-.2,0-.3,0-.5s0-.3,0-.5c0-.2,0-.3,0-.5s0-.3,0-.5c0-.2,0-.3,0-.5s0-.3,0-.5c0-.2,0-.3,0-.5s0-.3,0-.5v-.4c0,0,.1.1.2.2.3.2.5.4.8.6.3.2.5.4.8.6.3.2.5.4.8.6.3.2.5.4.8.6.3.2.5.4.8.6.3.2.5.4.8.6.3.2.5.4.8.6.3.2.5.4.8.6.3.2.5.4.8.6.3.2.5.4.8.6.3.2.5.4.8.6.3.2.5.4.8.6.3.2.5.4.8.6.3.2.5.4.8.6.3.2.5.4.8.6.3.2.5.4.8.6.3.2.5.4.8.6.3.2.5.4.8.6.3.2.5.4.8.6.3.2.5.4.8.6.3.2.5.4.8.6.3.2.5.4.8.6.3.2.5.4.8.6.3.2.5.4.8.6.3.2.5.4.8.6.3.2.5.4.8.6.3.2.5.4.8.6.3.2.5.4.8.6.3.2.5.4.8.6.3.2.5.4.8.6.3.2.5.4.8.6.3.2.5.4.8.6.3.2.5.4.8.6.3.2.5.4.8.6.3.2.5.4.8.6.3.2.5.4.8.6.3.2.5.4.8.6.3.2.5.4.8.6.3.2.5.4.8.6.3.2.5.4.8.6.3.2.5.4.8.6.3.2.5.4.8.6,4.4,3.4,9.9,5.4,15.8,5.4,14.3,0,25.9-11.6,25.9-25.9s-4.3-16.4-10.9-21.1h0Z"/>
  <path class="cls-1" d="M388.4,515.8h37.6c2.2,4.4,4.2,7.2,5.1,12.4.1.9.3,2.5.3,3.3,0,14.2-11.5,28.5-25.6,28.6h-70.3c-1.1,0-2.3,0-3.4-.1-.8,0-1.7.1-2.5.1-14.3,0-25.9-11.6-25.9-25.9s0-1,0-1.5c-.1-1.5-.1-3-.1-4.5v-63.9c0-1.5,0-3,.1-4.5,0-.5,0-1,0-1.5,0-14.3,11.6-25.9,25.9-25.9s1.7,0,2.5.1c1.1,0,2.3-.1,3.4-.1h70.3c14.1.2,25.6,14.4,25.6,28.6s-.2,2.4-.3,3.3c-.9,5.2-2.9,8-5.1,12.4h-70.6v5.5h70.3c.6.6,1.2,1.4,1.7,2.1,1,1.5,1.9,3.2,2.5,4.9.1.3.3.7.4,1h0c.6,2,.9,4.1,1,6.2,0,.3,0,.6,0,.9,0,.3,0,.6,0,.9h0c0,.4,0,.8-.1,1.1-.2,1.8-.7,3.6-1.4,5.2-.1.2-.2.4-.2.5-.2.4-2.6,3.9-3.5,5.1h-32s-38.5,0-38.5,0v5.4s31.3,0,31.3,0"/>
  <path class="cls-1" d="M568.1,458.9c0-.2,0-.3,0-.5,0-14.3-11.6-25.9-25.9-25.9s-25.9,11.6-25.9,25.9,0,.3,0,.5c0,.2,0,.3,0,.5s0,.3,0,.5c0,.2,0,.3,0,.5s0,.3,0,.5c0,.2,0,.3,0,.5s0,.3,0,.5c0,.2,0,.3,0,.5s0,.3,0,.5c0,.2,0,.3,0,.5s0,.3,0,.5c0,.2,0,.3,0,.5s0,.3,0,.5c0,.2,0,.3,0,.5s0,.3,0,.5c0,.2,0,.3,0,.5s0,.3,0,.5c0,.2,0,.3,0,.5s0,.3,0,.5c0,.2,0,.3,0,.5s0,.3,0,.5c0,.2,0,.3,0,.5s0,.3,0,.5c0,.2,0,.3,0,.5s0,.3,0,.5c0,.2,0,.3,0,.5s0,.3,0,.5h0c0,0-.2-.2-.3-.2-.2-.2-.5-.5-.7-.7-.2-.2-.5-.5-.7-.7-.2-.2-.5-.5-.7-.7-.2-.2-.5-.5-.7-.7-.2-.2-.5-.5-.7-.7-.2-.2-.5-.5-.7-.7-.2-.2-.5-.5-.7-.7-.2-.2-.5-.5-.7-.7-.2-.2-.5-.5-.7-.7-.2-.2-.5-.5-.7-.7-.2-.2-.5-.5-.7-.7-.2-.2-.5-.5-.7-.7-.2-.2-.5-.5-.7-.7-.2-.2-.5-.5-.7-.7-.2-.2-.5-.5-.7-.7-.2-.2-.5-.5-.7-.7-.2-.2-.5-.5-.7-.7-.2-.2-.5-.5-.7-.7-.2-.2-.5-.5-.7-.7-.2-.2-.5-.5-.7-.7-.2-.2-.5-.5-.7-.7-.2-.2-.5-.5-.7-.7-.2-.2-.5-.5-.7-.7-.2-.2-.5-.5-.7-.7-.2-.2-.5-.5-.7-.7-.2-.2-.5-.5-.7-.7-.2-.2-.5-.5-.7-.7-.2-.2-.5-.5-.7-.7-.2-.2-.5-.5-.7-.7-.2-.2-.5-.5-.7-.7-.2-.2-.5-.5-.7-.7-.2-.2-.5-.5-.7-.7-.2-.2-.5-.5-.7-.7-.2-.2-.5-.5-.7-.7-.2-.2-.5-.5-.7-.7-.2-.2-.5-.5-.7-.7-.2-.2-.5-.5-.7-.7-.2-.2-.5-.5-.7-.7-.2-.2-.5-.5-.7-.7-.2-.2-.5-.5-.7-.7-.2-.2-.5-.5-.7-.7-.2-.2-.5-.5-.7-.7-.2-.2-.5-.5-.7-.7-.2-.2-.5-.5-.7-.7-4.7-4.9-11.3-7.9-18.6-7.9-14.3,0-25.9,11.6-25.9,25.9s0,.3,0,.5c0,.2,0,.3,0,.5s0,.3,0,.5c0,.2,0,.3,0,.5s0,.3,0,.5c0,.2,0,.3,0,.5s0,.3,0,.5c0,.2,0,.3,0,.5s0,.3,0,.5c0,.2,0,.3,0,.5s0,.3,0,.5c0,.2,0,.3,0,.5s0,.3,0,.5c0,.2,0,.3,0,.5s0,.3,0,.5c0,.2,0,.3,0,.5s0,.3,0,.5c0,.2,0,.3,0,.5s0,.3,0,.5c0,.2,0,.3,0,.5s0,.3,0,.5c0,.2,0,.3,0,.5s0,.3,0,.5c0,.2,0,.3,0,.5s0,.3,0,.5c0,.2,0,.3,0,.5s0,.3,0,.5c0,.2,0,.3,0,.5s0,.3,0,.5c0,.2,0,.3,0,.5s0,.3,0,.5c0,.2,0,.3,0,.5s0,.3,0,.5c0,.2,0,.3,0,.5s0,.3,0,.5c0,.2,0,.3,0,.5s0,.3,0,.5c0,.2,0,.3,0,.5s0,.3,0,.5c0,.2,0,.3,0,.5s0,.3,0,.5c0,.2,0,.3,0,.5s0,.3,0,.5c0,.2,0,.3,0,.5s0,.3,0,.5c0,.2,0,.3,0,.5s0,.3,0,.5c0,.2,0,.3,0,.5s0,.3,0,.5c0,.2,0,.3,0,.5s0,.3,0,.5c0,.2,0,.3,0,.5s0,.3,0,.5c0,.2,0,.3,0,.5s0,.3,0,.5c0,.2,0,.3,0,.5s0,.3,0,.5c0,.2,0,.3,0,.5s0,.3,0,.5c0,.2,0,.3,0,.5s0,.3,0,.5c0,.2,0,.3,0,.5s0,.3,0,.5c0,.2,0,.3,0,.5s0,.3,0,.5c0,.2,0,.3,0,.5s0,.3,0,.5c0,.2,0,.3,0,.5s0,.3,0,.5c0,.2,0,.3,0,.5s0,.3,0,.5c0,.2,0,.3,0,.5s0,.3,0,.5c0,.2,0,.3,0,.5s0,.3,0,.5c0,.2,0,.3,0,.5s0,.3,0,.5c0,.2,0,.3,0,.5s0,.3,0,.5c0,.2,0,.3,0,.5s0,.3,0,.5c0,.2,0,.3,0,.5s0,.3,0,.5c0,.2,0,.3,0,.5s0,.3,0,.5c0,.2,0,.3,0,.5s0,.3,0,.5c0,.2,0,.3,0,.5s0,.3,0,.5c0,.2,0,.3,0,.5s0,.3,0,.5c0,.2,0,.3,0,.5s0,.3,0,.5c0,.2,0,.3,0,.5s0,.3,0,.5c0,.2,0,.3,0,.5s0,.3,0,.5c0,.2,0,.3,0,.5s0,.3,0,.5c0,.2,0,.3,0,.5s0,.3,0,.5c0,.2,0,.3,0,.5s0,.3,0,.5c0,.2,0,.3,0,.5s0,.3,0,.5c0,.2,0,.3,0,.5s0,.3,0,.5c0,.2,0,.3,0,.5s0,.3,0,.5c0,.2,0,.3,0,.5s0,.3,0,.5c0,.2,0,.3,0,.5s0,.3,0,.5c0,.2,0,.3,0,.5s0,.3,0,.5c0,.2,0,.3,0,.5s0,.3,0,.5c0,.2,0,.3,0,.5s0,.3,0,.5c0,.2,0,.3,0,.5s0,.3,0,.5c0,.2,0,.3,0,.5s0,.3,0,.5c0,.2,0,.3,0,.5s0,.3,0,.5c0,.2,0,.3,0,.5s0,.3,0,.5c0,.2,0,.3,0,.5s0,.3,0,.5c0,.2,0,.3,0,.5s0,.3,0,.5c0,.2,0,.3,0,.5s0,.3,0,.5c0,.2,0,.3,0,.5s0,.3,0,.5c0,.2,0,.3,0,.5s0,.3,0,.5c0,.2,0,.3,0,.5s0,.3,0,.5c0,.2,0,.3,0,.5s0,.3,0,.5c0,.2,0,.3,0,.5s0,.3,0,.5c0,.2,0,.3,0,.5s0,.3,0,.5c0,.2,0,.3,0,.5s0,.3,0,.5c0,.2,0,.3,0,.5s0,.3,0,.5c0,.2,0,.3,0,.5s0,.3,0,.5c0,.2,0,.3,0,.5,0,14.3,11.6,25.9,25.9,25.9s25.9-11.6,25.9-25.9,0-.3,0-.5c0-.2,0-.3,0-.5s0-.3,0-.5c0-.2,0-.3,0-.5s0-.3,0-.5c0-.2,0-.3,0-.5s0-.3,0-.5c0-.2,0-.3,0-.5s0-.3,0-.5c0-.2,0-.3,0-.5s0-.3,0-.5c0-.2,0-.3,0-.5s0-.3,0-.5c0-.2,0-.3,0-.5s0-.3,0-.5c0-.2,0-.3,0-.5s0-.3,0-.5c0-.2,0-.3,0-.5s0-.3,0-.5c0-.2,0-.3,0-.5s0-.3,0-.5c0-.2,0-.3,0-.5s0-.3,0-.5c0-.2,0-.3,0-.5s0-.3,0-.5c0-.2,0-.3,0-.5s0-.3,0-.5h0c0,0,.2.2.3.2.2.2.5.5.7.7.2.2.5.5.7.7.2.2.5.5.7.7.2.2.5.5.7.7.2.2.5.5.7.7.2.2.5.5.7.7.2.2.5.5.7.7.2.2.5.5.7.7.2.2.5.5.7.7.2.2.5.5.7.7.2.2.5.5.7.7.2.2.5.5.7.7.2.2.5.5.7.7.2.2.5.5.7.7.2.2.5.5.7.7.2.2.5.5.7.7.2.2.5.5.7.7.2.2.5.5.7.7.2.2.5.5.7.7.2.2.5.5.7.7.2.2.5.5.7.7.2.2.5.5.7.7.2.2.5.5.7.7.2.2.5.5.7.7.2.2.5.5.7.7.2.2.5.5.7.7.2.2.5.5.7.7.2.2.5.5.7.7.2.2.5.5.7.7.2.2.5.5.7.7.2.2.5.5.7.7.2.2.5.5.7.7.2.2.5.5.7.7.2.2.5.5.7.7.2.2.5.5.7.7.2.2.5.5.7.7.2.2.5.5.7.7.2.2.5.5.7.7.2.2.5.5.7.7.2.2.5.5.7.7.2.2.5.5.7.7.2.2.5.5.7.7.2.2.5.5.7.7.2.2.5.5.7.7,4.7,4.9,11.3,7.9,18.6,7.9,14.3,0,25.9-11.6,25.9-25.9s0-.3,0-.5c0-.2,0-.3,0-.5s0-.3,0-.5c0-.2,0-.3,0-.5s0-.3,0-.5c0-.2,0-.3,0-.5s0-.3,0-.5c0-.2,0-.3,0-.5s0-.3,0-.5c0-.2,0-.3,0-.5s0-.3,0-.5c0-.2,0-.3,0-.5s0-.3,0-.5c0-.2,0-.3,0-.5s0-.3,0-.5c0-.2,0-.3,0-.5s0-.3,0-.5c0-.2,0-.3,0-.5s0-.3,0-.5c0-.2,0-.3,0-.5s0-.3,0-.5c0-.2,0-.3,0-.5s0-.3,0-.5c0-.2,0-.3,0-.5s0-.3,0-.5c0-.2,0-.3,0-.5s0-.3,0-.5c0-.2,0-.3,0-.5s0-.3,0-.5c0-.2,0-.3,0-.5s0-.3,0-.5c0-.2,0-.3,0-.5s0-.3,0-.5c0-.2,0-.3,0-.5s0-.3,0-.5c0-.2,0-.3,0-.5s0-.3,0-.5c0-.2,0-.3,0-.5s0-.3,0-.5c0-.2,0-.3,0-.5s0-.3,0-.5c0-.2,0-.3,0-.5s0-.3,0-.5c0-.2,0-.3,0-.5s0-.3,0-.5c0-.2,0-.3,0-.5s0-.3,0-.5c0-.2,0-.3,0-.5s0-.3,0-.5c0-.2,0-.3,0-.5s0-.3,0-.5c0-.2,0-.3,0-.5s0-.3,0-.5c0-.2,0-.3,0-.5s0-.3,0-.5c0-.2,0-.3,0-.5s0-.3,0-.5c0-.2,0-.3,0-.5s0-.3,0-.5c0-.2,0-.3,0-.5s0-.3,0-.5c0-.2,0-.3,0-.5s0-.3,0-.5c0-.2,0-.3,0-.5s0-.3,0-.5c0-.2,0-.3,0-.5s0-.3,0-.5c0-.2,0-.3,0-.5s0-.3,0-.5c0-.2,0-.3,0-.5s0-.3,0-.5c0-.2,0-.3,0-.5s0-.3,0-.5c0-.2,0-.3,0-.5s0-.3,0-.5c0-.2,0-.3,0-.5s0-.3,0-.5c0-.2,0-.3,0-.5s0-.3,0-.5c0-.2,0-.3,0-.5s0-.3,0-.5c0-.2,0-.3,0-.5s0-.3,0-.5c0-.2,0-.3,0-.5s0-.3,0-.5c0-.2,0-.3,0-.5s0-.3,0-.5c0-.2,0-.3,0-.5s0-.3,0-.5c0-.2,0-.3,0-.5s0-.3,0-.5c0-.2,0-.3,0-.5s0-.3,0-.5c0-.2,0-.3,0-.5s0-.3,0-.5c0-.2,0-.3,0-.5s0-.3,0-.5c0-.2,0-.3,0-.5s0-.3,0-.5c0-.2,0-.3,0-.5s0-.3,0-.5c0-.2,0-.3,0-.5s0-.3,0-.5c0-.2,0-.3,0-.5s0-.3,0-.5c0-.2,0-.3,0-.5s0-.3,0-.5c0-.2,0-.3,0-.5s0-.3,0-.5c0-.2,0-.3,0-.5s0-.3,0-.5c0-.2,0-.3,0-.5s0-.3,0-.5c0-.2,0-.3,0-.5s0-.3,0-.5c0-.2,0-.3,0-.5s0-.3,0-.5c0-.2,0-.3,0-.5s0-.3,0-.5c0-.2,0-.3,0-.5s0-.3,0-.5c0-.2,0-.3,0-.5s0-.3,0-.5c0-.2,0-.3,0-.5s0-.3,0-.5c0-.2,0-.3,0-.5s0-.3,0-.5c0-.2,0-.3,0-.5s0-.3,0-.5c0-.2,0-.3,0-.5s0-.3,0-.5c0-.2,0-.3,0-.5s0-.3,0-.5c0-.2,0-.3,0-.5s0-.3,0-.5c0-.2,0-.3,0-.5s0-.3,0-.5c0-.2,0-.3,0-.5s0-.3,0-.5c0-.2,0-.3,0-.5s0-.3,0-.5c0-.2,0-.3,0-.5s0-.3,0-.5c0-.2,0-.3,0-.5s0-.3,0-.5c0-.2,0-.3,0-.5s0-.3,0-.5c0-.2,0-.3,0-.5s0-.3,0-.5c0-.2,0-.3,0-.5s0-.3,0-.5h0Z"/>
  <path class="cls-1" d="M696.3,464.4c-5.7-9.8-13.5-17.5-23.3-23.3-9.8-5.7-20.5-8.6-32-8.6h-31.9c-1.1,0-2.2,0-3.3.1-.9-.1-1.8-.1-2.7-.1-14.3,0-25.9,11.6-25.9,25.9s0,1.8.1,2.7c0,1.1-.1,2.2-.1,3.3v63.8c0,1.1,0,2.3,0,3.4,0,.8-.1,1.7-.1,2.6,0,14.3,11.6,25.9,25.9,25.9s1.2,0,1.7,0c1.4,0,2.9,0,4.3,0h31.9c11.5,0,22.2-2.9,32-8.6,9.8-5.7,17.5-13.5,23.3-23.3,5.7-9.8,8.6-20.5,8.6-32s-2.9-22.2-8.6-32h0ZM647.2,513.2l-29.6-29.6,3.9-3.9,29.6,29.6-3.9,3.9Z"/>
  <g>
    <path class="cls-1" d="M-449,535.5v63.8c0,5.8,1.4,11.2,4.3,16,2.9,4.9,6.7,8.7,11.6,11.6,4.9,2.9,10.2,4.3,16,4.3s11.2-1.4,16-4.3c4.9-2.9,8.7-6.7,11.6-11.6,2.9-4.9,4.3-10.2,4.3-16s1.4-11.2,4.3-16,6.7-8.7,11.6-11.6c4.9-2.9,10.2-4.3,16-4.3s11.2-1.4,16-4.3c4.9-2.9,8.7-6.7,11.6-11.6,2.9-4.9,4.3-10.2,4.3-16s-1.4-11.2-4.3-16-6.7-8.7-11.6-11.6c-4.9-2.9-10.2-4.3-16-4.3h-63.8c-5.8,0-11.2,1.4-16,4.3-4.9,2.9-8.7,6.7-11.6,11.6-2.9,4.9-4.3,10.2-4.3,16h0Z"/>
    <path class="cls-1" d="M-372.4,605.7c0,4.6,1.2,8.9,3.5,12.8s5.4,7,9.3,9.3c3.9,2.3,8.2,3.5,12.8,3.5s8.9-1.2,12.8-3.5c3.9-2.3,7-5.4,9.3-9.3,2.3-3.9,3.5-8.2,3.5-12.8s-1.2-8.9-3.5-12.8c-2.3-3.9-5.4-7-9.3-9.3s-8.2-3.5-12.8-3.5-8.9,1.2-12.8,3.5-7,5.4-9.3,9.3-3.5,8.2-3.5,12.8Z"/>
  </g>
  <g id="Hj5qby">
    <path class="cls-1" d="M-373.4,494.6c8.4-19.4-2.8-35.8-12.5-52.5-9.6,17.5-20.5,34.9-9.5,54-12.2.5-27.2-7.2-32.7-17.4-7-13-5.8-26.2-.2-39.2,10.8-25,27.2-48.2,47.6-70,.3-.3.7-.5,1.5-1.1,2.5,5.4,4.3,10.6,7.3,15.6,8.2,13.6,17.1,27,25.2,40.7,6.8,11.6,11.5,23.5,8.3,36.2-3.2,12.9-11.8,23.5-27.9,30.8-2.1.9-4.4,1.7-7,2.7h0Z"/>
  </g>
  <path class="cls-1" d="M-743,449.3c-.3-.2-.5-.4-.8-.6-.3-.2-.5-.4-.8-.6-.3-.2-.5-.4-.8-.6-.3-.2-.5-.4-.8-.6-.3-.2-.5-.4-.8-.6-.3-.2-.5-.4-.8-.6-.3-.2-.5-.4-.8-.6-.3-.2-.5-.4-.8-.6-.3-.2-.5-.4-.8-.6-.3-.2-.5-.4-.8-.6-.3-.2-.5-.4-.8-.6-.3-.2-.5-.4-.8-.6-.3-.2-.5-.4-.8-.6-.3-.2-.5-.4-.8-.6-.3-.2-.5-.4-.8-.6-.3-.2-.5-.4-.8-.6-.3-.2-.5-.4-.8-.6-.3-.2-.5-.4-.8-.6-.3-.2-.5-.4-.8-.6-.3-.2-.5-.4-.8-.6-.3-.2-.5-.4-.8-.6-.3-.2-.5-.4-.8-.6-.3-.2-.5-.4-.8-.6-.3-.2-.5-.4-.8-.6-.3-.2-.5-.4-.8-.6-.3-.2-.5-.4-.8-.6-.3-.2-.5-.4-.8-.6-.1,0-.2-.2-.3-.3.2-.2.4-.3.6-.5.3-.2.5-.4.8-.6.3-.2.5-.4.8-.6.3-.2.5-.4.8-.6.3-.2.5-.4.8-.6.3-.2.5-.4.8-.6.3-.2.5-.4.8-.6.3-.2.5-.4.8-.6.3-.2.5-.4.8-.6.3-.2.5-.4.8-.6.3-.2.5-.4.8-.6.3-.2.5-.4.8-.6.3-.2.5-.4.8-.6.3-.2.5-.4.8-.6.3-.2.5-.4.8-.6.3-.2.5-.4.8-.6.3-.2.5-.4.8-.6.3-.2.5-.4.8-.6.3-.2.5-.4.8-.6.3-.2.5-.4.8-.6.3-.2.5-.4.8-.6.3-.2.5-.4.8-.6.3-.2.5-.4.8-.6.3-.2.5-.4.8-.6.3-.2.5-.4.8-.6.3-.2.5-.4.8-.6.3-.2.5-.4.8-.6.3-.2.5-.4.8-.6.3-.2.5-.4.8-.6,6.4-4.7,10.5-12.3,10.5-20.8,0-14.3-11.6-25.9-25.9-25.9s-11.7,2.1-16.1,5.7c-.3.2-.5.4-.8.6-.3.2-.5.4-.8.6-.3.2-.5.4-.8.6-.3.2-.5.4-.8.6-.3.2-.5.4-.8.6-.3.2-.5.4-.8.6-.3.2-.5.4-.8.6-.3.2-.5.4-.8.6-.3.2-.5.4-.8.6-.3.2-.5.4-.8.6-.3.2-.5.4-.8.6-.3.2-.5.4-.8.6-.3.2-.5.4-.8.6-.3.2-.5.4-.8.6-.3.2-.5.4-.8.6-.3.2-.5.4-.8.6-.3.2-.5.4-.8.6-.3.2-.5.4-.8.6-.3.2-.5.4-.8.6-.3.2-.5.4-.8.6-.3.2-.5.4-.8.6-.3.2-.5.4-.8.6-.3.2-.5.4-.8.6-.3.2-.5.4-.8.6-.3.2-.5.4-.8.6-.3.2-.5.4-.8.6-.3.2-.5.4-.8.6-.3.2-.5.4-.8.6-.3.2-.5.4-.8.6-.3.2-.5.4-.8.6-.3.2-.5.4-.8.6-.3.2-.5.4-.8.6-.3.2-.5.4-.8.6-.3.2-.5.4-.8.6-.3.2-.5.4-.8.6-.3.2-.5.4-.8.6-.3.2-.5.4-.8.6-.3.2-.5.4-.8.6-.3.2-.5.4-.8.6-.3.2-.5.4-.8.6-.3.2-.5.4-.8.6-.3.2-.5.4-.8.6-.3.2-.5.4-.8.6,0,0,0,0-.1,0h0c0-.3,0-.4,0-.6,0-.2,0-.3,0-.5s0-.3,0-.5c0-.2,0-.3,0-.5s0-.3,0-.5c0-.2,0-.3,0-.5s0-.3,0-.5c0-.2,0-.3,0-.5s0-.3,0-.5c0-.2,0-.3,0-.5s0-.3,0-.5c0-.2,0-.3,0-.5,0-14.3-11.6-25.9-25.9-25.9s-25.9,11.6-25.9,25.9,0,.3,0,.5c0,.2,0,.3,0,.5s0,.3,0,.5c0,.2,0,.3,0,.5s0,.3,0,.5c0,.2,0,.3,0,.5s0,.3,0,.5c0,.2,0,.3,0,.5s0,.3,0,.5c0,.2,0,.3,0,.5s0,.3,0,.5c0,.2,0,.3,0,.5s0,.3,0,.5c0,.2,0,.3,0,.5s0,.3,0,.5c0,.2,0,.3,0,.5s0,.3,0,.5c0,.2,0,.3,0,.5s0,.3,0,.5c0,.2,0,.3,0,.5s0,.3,0,.5c0,.2,0,.3,0,.5s0,.3,0,.5c0,.2,0,.3,0,.5s0,.3,0,.5c0,.2,0,.3,0,.5s0,.3,0,.5c0,.2,0,.3,0,.5s0,.3,0,.5c0,.2,0,.3,0,.5s0,.3,0,.5c0,.2,0,.3,0,.5s0,.3,0,.5c0,.2,0,.3,0,.5s0,.3,0,.5c0,.2,0,.3,0,.5s0,.3,0,.5c0,.2,0,.3,0,.5s0,.3,0,.5c0,.2,0,.3,0,.5s0,.3,0,.5c0,.2,0,.3,0,.5s0,.3,0,.5c0,.2,0,.3,0,.5s0,.3,0,.5c0,.2,0,.3,0,.5s0,.3,0,.5c0,.2,0,.3,0,.5s0,.3,0,.5c0,.2,0,.3,0,.5s0,.3,0,.5c0,.2,0,.3,0,.5s0,.3,0,.5c0,.2,0,.3,0,.5s0,.3,0,.5c0,.2,0,.3,0,.5s0,.3,0,.5c0,.2,0,.3,0,.5s0,.3,0,.5c0,.2,0,.3,0,.5s0,.3,0,.5c0,.2,0,.3,0,.5s0,.3,0,.5c0,.2,0,.3,0,.5s0,.3,0,.5c0,.2,0,.3,0,.5s0,.3,0,.5c0,.2,0,.3,0,.5s0,.3,0,.5c0,.2,0,.3,0,.5s0,.3,0,.5c0,.2,0,.3,0,.5s0,.3,0,.5c0,.2,0,.3,0,.5s0,.3,0,.5c0,.2,0,.3,0,.5s0,.3,0,.5c0,.2,0,.3,0,.5s0,.3,0,.5c0,.2,0,.3,0,.5s0,.3,0,.5c0,.2,0,.3,0,.5s0,.3,0,.5c0,.2,0,.3,0,.5s0,.3,0,.5c0,.2,0,.3,0,.5s0,.3,0,.5c0,.2,0,.3,0,.5s0,.3,0,.5c0,.2,0,.3,0,.5s0,.3,0,.5c0,.2,0,.3,0,.5s0,.3,0,.5c0,.2,0,.3,0,.5s0,.3,0,.5c0,.2,0,.3,0,.5s0,.3,0,.5c0,.2,0,.3,0,.5s0,.3,0,.5c0,.2,0,.3,0,.5s0,.3,0,.5c0,.2,0,.3,0,.5s0,.3,0,.5c0,.2,0,.3,0,.5s0,.3,0,.5c0,.2,0,.3,0,.5s0,.3,0,.5c0,.2,0,.3,0,.5s0,.3,0,.5c0,.2,0,.3,0,.5s0,.3,0,.5c0,.2,0,.3,0,.5s0,.3,0,.5c0,.2,0,.3,0,.5s0,.3,0,.5c0,.2,0,.3,0,.5s0,.3,0,.5c0,.2,0,.3,0,.5s0,.3,0,.5c0,.2,0,.3,0,.5s0,.3,0,.5c0,.2,0,.3,0,.5s0,.3,0,.5c0,.2,0,.3,0,.5s0,.3,0,.5c0,.2,0,.3,0,.5s0,.3,0,.5c0,.2,0,.3,0,.5s0,.3,0,.5c0,.2,0,.3,0,.5s0,.3,0,.5c0,.2,0,.3,0,.5s0,.3,0,.5c0,.2,0,.3,0,.5s0,.3,0,.5c0,.2,0,.3,0,.5s0,.3,0,.5c0,.2,0,.3,0,.5s0,.3,0,.5c0,.2,0,.3,0,.5s0,.3,0,.5c0,.2,0,.3,0,.5s0,.3,0,.5c0,.2,0,.3,0,.5s0,.3,0,.5c0,.2,0,.3,0,.5s0,.3,0,.5c0,.2,0,.3,0,.5s0,.3,0,.5c0,.2,0,.3,0,.5s0,.3,0,.5c0,.2,0,.3,0,.5,0,14.3,11.6,25.9,25.9,25.9s25.9-11.6,25.9-25.9,0-.3,0-.5c0-.2,0-.3,0-.5s0-.3,0-.5c0-.2,0-.3,0-.5s0-.3,0-.5c0-.2,0-.3,0-.5s0-.3,0-.5c0-.2,0-.3,0-.5s0-.3,0-.5v-.4c0,0,.1.1.2.2.3.2.5.4.8.6.3.2.5.4.8.6.3.2.5.4.8.6.3.2.5.4.8.6.3.2.5.4.8.6.3.2.5.4.8.6.3.2.5.4.8.6.3.2.5.4.8.6.3.2.5.4.8.6.3.2.5.4.8.6.3.2.5.4.8.6.3.2.5.4.8.6.3.2.5.4.8.6.3.2.5.4.8.6.3.2.5.4.8.6.3.2.5.4.8.6.3.2.5.4.8.6.3.2.5.4.8.6.3.2.5.4.8.6.3.2.5.4.8.6.3.2.5.4.8.6.3.2.5.4.8.6.3.2.5.4.8.6.3.2.5.4.8.6.3.2.5.4.8.6.3.2.5.4.8.6.3.2.5.4.8.6.3.2.5.4.8.6.3.2.5.4.8.6.3.2.5.4.8.6.3.2.5.4.8.6.3.2.5.4.8.6.3.2.5.4.8.6.3.2.5.4.8.6.3.2.5.4.8.6.3.2.5.4.8.6.3.2.5.4.8.6.3.2.5.4.8.6.3.2.5.4.8.6.3.2.5.4.8.6.3.2.5.4.8.6.3.2.5.4.8.6,4.4,3.4,9.9,5.4,15.8,5.4,14.3,0,25.9-11.6,25.9-25.9s-4.3-16.4-10.9-21.1h0Z"/>
  <path class="cls-1" d="M-621,579.4c-.2,0-.3,0-.5,0-.2,0-.3,0-.5,0s-.3,0-.5,0c-.2,0-.3,0-.5,0s-.3,0-.5,0c-.2,0-.3,0-.5,0s-.3,0-.5,0c-.2,0-.3,0-.5,0s-.3,0-.5,0c-.2,0-.3,0-.5,0s-.3,0-.5,0c-.2,0-.3,0-.5,0s-.3,0-.5,0c-.2,0-.3,0-.5,0s-.3,0-.5,0c-.2,0-.3,0-.5,0s-.3,0-.5,0c-.2,0-.3,0-.5,0s-.3,0-.5,0c-.2,0-.3,0-.5,0s-.3,0-.5,0c-.2,0-.3,0-.5,0s-.3,0-.5,0c-.2,0-.3,0-.5,0s-.3,0-.5,0c-.2,0-.3,0-.5,0s-.3,0-.5,0c-.2,0-.3,0-.5,0s-.3,0-.5,0c-.2,0-.3,0-.5,0s-.3,0-.5,0c-.2,0-.3,0-.5,0s-.3,0-.5,0c-.2,0-.3,0-.5,0s-.3,0-.5,0c-.2,0-.3,0-.5,0s-.3,0-.5,0c-.2,0-.3,0-.5,0s-.3,0-.5,0c-.2,0-.3,0-.5,0s-.3,0-.5,0c-.2,0-.3,0-.5,0s-.3,0-.5,0c-.2,0-.3,0-.5,0s-.3,0-.5,0c-.2,0-.3,0-.5,0s-.3,0-.5,0c-.2,0-.3,0-.5,0s-.3,0-.5,0c-.2,0-.3,0-.5,0s-.3,0-.5,0c-.2,0-.3,0-.5,0s-.3,0-.5,0c-.2,0-.3,0-.5,0s-.3,0-.5,0c-.2,0-.3,0-.5,0s-.3,0-.5,0c-.2,0-.3,0-.5,0s-.3,0-.5,0c-.2,0-.3,0-.5,0s-.3,0-.5,0c-.2,0-.3,0-.5,0s-.3,0-.5,0c-.2,0-.3,0-.5,0s-.3,0-.5,0c-.2,0-.3,0-.5,0s-.3,0-.5,0c-.2,0-.3,0-.5,0s-.3,0-.5,0c-.2,0-.3,0-.5,0s-.3,0-.5,0c-.2,0-.3,0-.5,0s-.3,0-.5,0c-.2,0-.3,0-.5,0s-.3,0-.5,0c-.2,0-.3,0-.5,0s-.3,0-.5,0c-.2,0-.3,0-.5,0s-.3,0-.5,0c-.2,0-.3,0-.5,0s-.3,0-.5,0c-.2,0-.3,0-.5,0s-.3,0-.5,0c-.2,0-.3,0-.5,0s-.3,0-.5,0c-.2,0-.3,0-.5,0s-.3,0-.5,0c-.2,0-.3,0-.5,0s-.3,0-.5,0c-.2,0-.3,0-.5,0s-.3,0-.5,0c-.2,0-.3,0-.5,0s-.3,0-.5,0c-.2,0-.3,0-.5,0s-.3,0-.5,0c-.2,0-.3,0-.5,0s-.3,0-.5,0c-.2,0-.3,0-.5,0s-.3,0-.5,0c-.2,0-.3,0-.5,0h0c0-.3,0-.4,0-.6,0-.2,0-.3,0-.5s0-.3,0-.5c0-.2,0-.3,0-.5s0-.3,0-.5c0-.2,0-.3,0-.5s0-.3,0-.5c0-.2,0-.3,0-.5s0-.3,0-.5c0-.2,0-.3,0-.5s0-.3,0-.5c0-.2,0-.3,0-.5s0-.3,0-.5c0-.2,0-.3,0-.5s0-.3,0-.5c0-.2,0-.3,0-.5s0-.3,0-.5c0-.2,0-.3,0-.5s0-.3,0-.5c0-.2,0-.3,0-.5s0-.3,0-.5c0-.2,0-.3,0-.5s0-.3,0-.5c0-.2,0-.3,0-.5s0-.3,0-.5c0-.2,0-.3,0-.5s0-.3,0-.5c0-.2,0-.3,0-.5s0-.3,0-.5c0-.2,0-.3,0-.5s0-.3,0-.5c0-.2,0-.3,0-.5s0-.3,0-.5c0-.2,0-.3,0-.5s0-.3,0-.5c0-.2,0-.3,0-.5s0-.3,0-.5c0-.2,0-.3,0-.5s0-.3,0-.5c0-.2,0-.3,0-.5s0-.3,0-.5c0-.2,0-.3,0-.5s0-.3,0-.5c0-.2,0-.3,0-.5s0-.3,0-.5c0-.2,0-.3,0-.5s0-.3,0-.5c0-.2,0-.3,0-.5s0-.3,0-.5c0-.2,0-.3,0-.5s0-.3,0-.5c0-.2,0-.3,0-.5s0-.3,0-.5c0-.2,0-.3,0-.5s0-.3,0-.5c0-.2,0-.3,0-.5s0-.3,0-.5c0-.2,0-.3,0-.5s0-.3,0-.5c0-.2,0-.3,0-.5s0-.3,0-.5c0-.2,0-.3,0-.5s0-.3,0-.5c0-.2,0-.3,0-.5s0-.3,0-.5c0-.2,0-.3,0-.5s0-.3,0-.5c0-.2,0-.3,0-.5s0-.3,0-.5c0-.2,0-.3,0-.5s0-.3,0-.5c0-.2,0-.3,0-.5s0-.3,0-.5c0-.2,0-.3,0-.5s0-.3,0-.5c0-.2,0-.3,0-.5s0-.3,0-.5c0-.2,0-.3,0-.5s0-.3,0-.5c0-.2,0-.3,0-.5s0-.3,0-.5c0-.2,0-.3,0-.5s0-.3,0-.5c0-.2,0-.3,0-.5s0-.3,0-.5c0-.2,0-.3,0-.5s0-.3,0-.5c0-.2,0-.3,0-.5s0-.3,0-.5c0-.2,0-.3,0-.5s0-.3,0-.5c0-.2,0-.3,0-.5s0-.3,0-.5c0-.2,0-.3,0-.5s0-.3,0-.5c0-.2,0-.3,0-.5s0-.3,0-.5c0-.2,0-.3,0-.5s0-.3,0-.5c0-.2,0-.3,0-.5,0-14.3-11.6-25.9-25.9-25.9s-25.9,11.6-25.9,25.9,0,.3,0,.5c0,.2,0,.3,0,.5s0,.3,0,.5c0,.2,0,.3,0,.5s0,.3,0,.5c0,.2,0,.3,0,.5s0,.3,0,.5c0,.2,0,.3,0,.5s0,.3,0,.5c0,.2,0,.3,0,.5s0,.3,0,.5c0,.2,0,.3,0,.5s0,.3,0,.5c0,.2,0,.3,0,.5s0,.3,0,.5c0,.2,0,.3,0,.5s0,.3,0,.5c0,.2,0,.3,0,.5s0,.3,0,.5c0,.2,0,.3,0,.5s0,.3,0,.5c0,.2,0,.3,0,.5s0,.3,0,.5c0,.2,0,.3,0,.5s0,.3,0,.5c0,.2,0,.3,0,.5s0,.3,0,.5c0,.2,0,.3,0,.5s0,.3,0,.5c0,.2,0,.3,0,.5s0,.3,0,.5c0,.2,0,.3,0,.5s0,.3,0,.5c0,.2,0,.3,0,.5s0,.3,0,.5c0,.2,0,.3,0,.5s0,.3,0,.5c0,.2,0,.3,0,.5s0,.3,0,.5c0,.2,0,.3,0,.5s0,.3,0,.5c0,.2,0,.3,0,.5s0,.3,0,.5c0,.2,0,.3,0,.5s0,.3,0,.5c0,.2,0,.3,0,.5s0,.3,0,.5c0,.2,0,.3,0,.5s0,.3,0,.5c0,.2,0,.3,0,.5s0,.3,0,.5c0,.2,0,.3,0,.5s0,.3,0,.5c0,.2,0,.3,0,.5s0,.3,0,.5c0,.2,0,.3,0,.5s0,.3,0,.5c0,.2,0,.3,0,.5s0,.3,0,.5c0,.2,0,.3,0,.5s0,.3,0,.5c0,.2,0,.3,0,.5s0,.3,0,.5c0,.2,0,.3,0,.5s0,.3,0,.5c0,.2,0,.3,0,.5s0,.3,0,.5c0,.2,0,.3,0,.5s0,.3,0,.5c0,.2,0,.3,0,.5s0,.3,0,.5c0,.2,0,.3,0,.5s0,.3,0,.5c0,.2,0,.3,0,.5s0,.3,0,.5c0,.2,0,.3,0,.5s0,.3,0,.5c0,.2,0,.3,0,.5s0,.3,0,.5c0,.2,0,.3,0,.5s0,.3,0,.5c0,.2,0,.3,0,.5s0,.3,0,.5c0,.2,0,.3,0,.5s0,.3,0,.5c0,.2,0,.3,0,.5s0,.3,0,.5c0,.2,0,.3,0,.5s0,.3,0,.5c0,.2,0,.3,0,.5s0,.3,0,.5c0,.2,0,.3,0,.5s0,.3,0,.5c0,.2,0,.3,0,.5s0,.3,0,.5c0,.2,0,.3,0,.5s0,.3,0,.5c0,.2,0,.3,0,.5s0,.3,0,.5c0,.2,0,.3,0,.5s0,.3,0,.5c0,.2,0,.3,0,.5s0,.3,0,.5c0,.2,0,.3,0,.5s0,.3,0,.5c0,.2,0,.3,0,.5s0,.3,0,.5c0,.2,0,.3,0,.5s0,.3,0,.5c0,.2,0,.3,0,.5s0,.3,0,.5c0,.2,0,.3,0,.5s0,.3,0,.5c0,.2,0,.3,0,.5s0,.3,0,.5c0,.2,0,.3,0,.5s0,.3,0,.5c0,.2,0,.3,0,.5s0,.3,0,.5c0,.2,0,.3,0,.5s0,.3,0,.5c0,.2,0,.3,0,.5s0,.3,0,.5c0,.2,0,.3,0,.5s0,.3,0,.5c0,.2,0,.3,0,.5s0,.3,0,.5c0,.2,0,.3,0,.5s0,.3,0,.5c0,.2,0,.3,0,.5s0,.3,0,.5c0,.2,0,.3,0,.5s0,.3,0,.5c0,.2,0,.3,0,.5s0,.3,0,.5c0,.2,0,.3,0,.5s0,.3,0,.5c0,.2,0,.3,0,.5s0,.3,0,.5c0,.2,0,.3,0,.5s0,.3,0,.5c0,.2,0,.3,0,.5s0,.3,0,.5c0,.2,0,.3,0,.5s0,.3,0,.5c0,.2,0,.3,0,.5s0,.3,0,.5c0,.2,0,.3,0,.5s0,.3,0,.5c0,.2,0,.3,0,.5s0,.3,0,.5c0,.2,0,.3,0,.5,0,14.3,11.6,25.9,25.9,25.9s.3,0,.5,0c.2,0,.3,0,.5,0s.3,0,.5,0c.2,0,.3,0,.5,0s.3,0,.5,0c.2,0,.3,0,.5,0s.3,0,.5,0c.2,0,.3,0,.5,0s.3,0,.5,0c.2,0,.3,0,.5,0s.3,0,.5,0c.2,0,.3,0,.5,0s.3,0,.5,0c.2,0,.3,0,.5,0s.3,0,.5,0c.2,0,.3,0,.5,0s.3,0,.5,0c.2,0,.3,0,.5,0s.3,0,.5,0c.2,0,.3,0,.5,0s.3,0,.5,0c.2,0,.3,0,.5,0s.3,0,.5,0c.2,0,.3,0,.5,0s.3,0,.5,0c.2,0,.3,0,.5,0s.3,0,.5,0c.2,0,.3,0,.5,0s.3,0,.5,0c.2,0,.3,0,.5,0s.3,0,.5,0c.2,0,.3,0,.5,0s.3,0,.5,0c.2,0,.3,0,.5,0s.3,0,.5,0c.2,0,.3,0,.5,0s.3,0,.5,0c.2,0,.3,0,.5,0s.3,0,.5,0c.2,0,.3,0,.5,0s.3,0,.5,0c.2,0,.3,0,.5,0s.3,0,.5,0c.2,0,.3,0,.5,0s.3,0,.5,0c.2,0,.3,0,.5,0s.3,0,.5,0c.2,0,.3,0,.5,0s.3,0,.5,0c.2,0,.3,0,.5,0s.3,0,.5,0c.2,0,.3,0,.5,0s.3,0,.5,0c.2,0,.3,0,.5,0s.3,0,.5,0c.2,0,.3,0,.5,0s.3,0,.5,0c.2,0,.3,0,.5,0s.3,0,.5,0c.2,0,.3,0,.5,0s.3,0,.5,0c.2,0,.3,0,.5,0s.3,0,.5,0c.2,0,.3,0,.5,0s.3,0,.5,0c.2,0,.3,0,.5,0s.3,0,.5,0c.2,0,.3,0,.5,0s.3,0,.5,0c.2,0,.3,0,.5,0s.3,0,.5,0c.2,0,.3,0,.5,0s.3,0,.5,0c.2,0,.3,0,.5,0s.3,0,.5,0c.2,0,.3,0,.5,0s.3,0,.5,0c.2,0,.3,0,.5,0s.3,0,.5,0c.2,0,.3,0,.5,0s.3,0,.5,0c.2,0,.3,0,.5,0s.3,0,.5,0c.2,0,.3,0,.5,0s.3,0,.5,0c.2,0,.3,0,.5,0s.3,0,.5,0c.2,0,.3,0,.5,0s.3,0,.5,0c.2,0,.3,0,.5,0s.3,0,.5,0c.2,0,.3,0,.5,0s.3,0,.5,0c.2,0,.3,0,.5,0s.3,0,.5,0c.2,0,.3,0,.5,0s.3,0,.5,0c.2,0,.3,0,.5,0s.3,0,.5,0c.2,0,.3,0,.5,0s.3,0,.5,0c.2,0,.3,0,.5,0s.3,0,.5,0c.2,0,.3,0,.5,0s.3,0,.5,0c.2,0,.3,0,.5,0s.3,0,.5,0c.2,0,.3,0,.5,0s.3,0,.5,0c.2,0,.3,0,.5,0s.3,0,.5,0c.2,0,.3,0,.5,0s.3,0,.5,0c.2,0,.3,0,.5,0s.3,0,.5,0c.2,0,.3,0,.5,0s.3,0,.5,0c.2,0,.3,0,.5,0s.3,0,.5,0c.2,0,.3,0,.5,0s.3,0,.5,0c.2,0,.3,0,.5,0s.3,0,.5,0c.2,0,.3,0,.5,0s.3,0,.5,0c.2,0,.3,0,.5,0s.3,0,.5,0c.2,0,.3,0,.5,0s.3,0,.5,0c.2,0,.3,0,.5,0s.3,0,.5,0c.2,0,.3,0,.5,0s.3,0,.5,0c.2,0,.3,0,.5,0s.3,0,.5,0c.2,0,.3,0,.5,0s.3,0,.5,0c.2,0,.3,0,.5,0s.3,0,.5,0c.2,0,.3,0,.5,0s.3,0,.5,0c.2,0,.3,0,.5,0s.3,0,.5,0c.2,0,.3,0,.5,0s.3,0,.5,0c.2,0,.3,0,.5,0s.3,0,.5,0c.2,0,.3,0,.5,0s.3,0,.5,0c.2,0,.3,0,.5,0s.3,0,.5,0c.2,0,.3,0,.5,0,14.3,0,25.9-11.6,25.9-25.9s-11.6-25.9-25.9-25.9h0Z"/>
  <path class="cls-1" d="M-638,451.9h37.6c2.2,4.4,4.2,7.2,5.1,12.4.1.9.3,2.5.3,3.3,0,14.2-11.5,28.5-25.6,28.6h-70.3c-1.1,0-2.3,0-3.4-.1-.8,0-1.7.1-2.5.1-14.3,0-25.9-11.6-25.9-25.9s0-1,0-1.5c-.1-1.5-.1-3-.1-4.5v-63.9c0-1.5,0-3,.1-4.5,0-.5,0-1,0-1.5,0-14.3,11.6-25.9,25.9-25.9s1.7,0,2.5.1c1.1,0,2.3-.1,3.4-.1h70.3c14.1.2,25.6,14.4,25.6,28.6s-.2,2.4-.3,3.3c-.9,5.2-2.9,8-5.1,12.4h-70.6v5.5h70.3c.6.6,1.2,1.4,1.7,2.1,1,1.5,1.9,3.2,2.5,4.9.1.3.3.7.4,1h0c.6,2,.9,4.1,1,6.2,0,.3,0,.6,0,.9,0,.3,0,.6,0,.9h0c0,.4,0,.8-.1,1.1-.2,1.8-.7,3.6-1.4,5.2-.1.2-.2.4-.2.5-.2.4-2.6,3.9-3.5,5.1h-32s-38.5,0-38.5,0v5.4s31.3,0,31.3,0"/>
  <path class="cls-1" d="M-501.2,586.9h37.6c2.2,4.4,4.2,7.2,5.1,12.4.2.9.3,2.5.3,3.3,0,14.2-11.5,28.5-25.6,28.6h-70.3c-1.1,0-2.3,0-3.4-.1-.8,0-1.7.1-2.5.1-14.3,0-25.9-11.6-25.9-25.9s0-1,0-1.5c-.1-1.5-.1-3-.1-4.5v-63.9c0-1.5,0-3,.1-4.5,0-.5,0-1,0-1.5,0-14.3,11.6-25.9,25.9-25.9s1.7,0,2.5.1c1.1,0,2.3-.1,3.4-.1h70.3c14.1.2,25.6,14.4,25.6,28.6s-.2,2.4-.3,3.3c-.9,5.2-2.9,8-5.1,12.4h-70.6v5.5h70.3c.6.6,1.2,1.4,1.7,2.1,1,1.5,1.9,3.2,2.5,4.8.1.3.3.7.4,1h0c.6,2,.9,4.1,1,6.2,0,.3,0,.6,0,.9s0,.6,0,.9h0c0,.4,0,.8-.1,1.1-.2,1.8-.7,3.6-1.4,5.2,0,.2-.2.4-.2.5-.2.4-2.7,3.9-3.5,5.1h-32s-38.5,0-38.5,0v5.4s31.3,0,31.3,0"/>
  <path class="cls-1" d="M-458.3,395c0-.2,0-.3,0-.5,0-14.3-11.6-25.9-25.9-25.9s-25.9,11.6-25.9,25.9,0,.3,0,.5c0,.2,0,.3,0,.5s0,.3,0,.5c0,.2,0,.3,0,.5s0,.3,0,.5c0,.2,0,.3,0,.5s0,.3,0,.5c0,.2,0,.3,0,.5s0,.3,0,.5c0,.2,0,.3,0,.5s0,.3,0,.5c0,.2,0,.3,0,.5s0,.3,0,.5c0,.2,0,.3,0,.5s0,.3,0,.5c0,.2,0,.3,0,.5s0,.3,0,.5c0,.2,0,.3,0,.5s0,.3,0,.5c0,.2,0,.3,0,.5s0,.3,0,.5c0,.2,0,.3,0,.5s0,.3,0,.5c0,.2,0,.3,0,.5s0,.3,0,.5c0,.2,0,.3,0,.5s0,.3,0,.5h0c0,0-.2-.2-.3-.2-.2-.2-.5-.5-.7-.7-.2-.2-.5-.5-.7-.7-.2-.2-.5-.5-.7-.7-.2-.2-.5-.5-.7-.7-.2-.2-.5-.5-.7-.7-.2-.2-.5-.5-.7-.7-.2-.2-.5-.5-.7-.7-.2-.2-.5-.5-.7-.7-.2-.2-.5-.5-.7-.7-.2-.2-.5-.5-.7-.7-.2-.2-.5-.5-.7-.7-.2-.2-.5-.5-.7-.7-.2-.2-.5-.5-.7-.7-.2-.2-.5-.5-.7-.7-.2-.2-.5-.5-.7-.7-.2-.2-.5-.5-.7-.7-.2-.2-.5-.5-.7-.7-.2-.2-.5-.5-.7-.7-.2-.2-.5-.5-.7-.7-.2-.2-.5-.5-.7-.7-.2-.2-.5-.5-.7-.7-.2-.2-.5-.5-.7-.7-.2-.2-.5-.5-.7-.7-.2-.2-.5-.5-.7-.7-.2-.2-.5-.5-.7-.7-.2-.2-.5-.5-.7-.7-.2-.2-.5-.5-.7-.7-.2-.2-.5-.5-.7-.7-.2-.2-.5-.5-.7-.7-.2-.2-.5-.5-.7-.7-.2-.2-.5-.5-.7-.7-.2-.2-.5-.5-.7-.7-.2-.2-.5-.5-.7-.7-.2-.2-.5-.5-.7-.7-.2-.2-.5-.5-.7-.7-.2-.2-.5-.5-.7-.7-.2-.2-.5-.5-.7-.7-.2-.2-.5-.5-.7-.7-.2-.2-.5-.5-.7-.7-.2-.2-.5-.5-.7-.7-.2-.2-.5-.5-.7-.7-.2-.2-.5-.5-.7-.7-.2-.2-.5-.5-.7-.7-.2-.2-.5-.5-.7-.7-4.7-4.9-11.3-7.9-18.6-7.9-14.3,0-25.9,11.6-25.9,25.9s0,.3,0,.5c0,.2,0,.3,0,.5s0,.3,0,.5c0,.2,0,.3,0,.5s0,.3,0,.5c0,.2,0,.3,0,.5s0,.3,0,.5c0,.2,0,.3,0,.5s0,.3,0,.5c0,.2,0,.3,0,.5s0,.3,0,.5c0,.2,0,.3,0,.5s0,.3,0,.5c0,.2,0,.3,0,.5s0,.3,0,.5c0,.2,0,.3,0,.5s0,.3,0,.5c0,.2,0,.3,0,.5s0,.3,0,.5c0,.2,0,.3,0,.5s0,.3,0,.5c0,.2,0,.3,0,.5s0,.3,0,.5c0,.2,0,.3,0,.5s0,.3,0,.5c0,.2,0,.3,0,.5s0,.3,0,.5c0,.2,0,.3,0,.5s0,.3,0,.5c0,.2,0,.3,0,.5s0,.3,0,.5c0,.2,0,.3,0,.5s0,.3,0,.5c0,.2,0,.3,0,.5s0,.3,0,.5c0,.2,0,.3,0,.5s0,.3,0,.5c0,.2,0,.3,0,.5s0,.3,0,.5c0,.2,0,.3,0,.5s0,.3,0,.5c0,.2,0,.3,0,.5s0,.3,0,.5c0,.2,0,.3,0,.5s0,.3,0,.5c0,.2,0,.3,0,.5s0,.3,0,.5c0,.2,0,.3,0,.5s0,.3,0,.5c0,.2,0,.3,0,.5s0,.3,0,.5c0,.2,0,.3,0,.5s0,.3,0,.5c0,.2,0,.3,0,.5s0,.3,0,.5c0,.2,0,.3,0,.5s0,.3,0,.5c0,.2,0,.3,0,.5s0,.3,0,.5c0,.2,0,.3,0,.5s0,.3,0,.5c0,.2,0,.3,0,.5s0,.3,0,.5c0,.2,0,.3,0,.5s0,.3,0,.5c0,.2,0,.3,0,.5s0,.3,0,.5c0,.2,0,.3,0,.5s0,.3,0,.5c0,.2,0,.3,0,.5s0,.3,0,.5c0,.2,0,.3,0,.5s0,.3,0,.5c0,.2,0,.3,0,.5s0,.3,0,.5c0,.2,0,.3,0,.5s0,.3,0,.5c0,.2,0,.3,0,.5s0,.3,0,.5c0,.2,0,.3,0,.5s0,.3,0,.5c0,.2,0,.3,0,.5s0,.3,0,.5c0,.2,0,.3,0,.5s0,.3,0,.5c0,.2,0,.3,0,.5s0,.3,0,.5c0,.2,0,.3,0,.5s0,.3,0,.5c0,.2,0,.3,0,.5s0,.3,0,.5c0,.2,0,.3,0,.5s0,.3,0,.5c0,.2,0,.3,0,.5s0,.3,0,.5c0,.2,0,.3,0,.5s0,.3,0,.5c0,.2,0,.3,0,.5s0,.3,0,.5c0,.2,0,.3,0,.5s0,.3,0,.5c0,.2,0,.3,0,.5s0,.3,0,.5c0,.2,0,.3,0,.5s0,.3,0,.5c0,.2,0,.3,0,.5s0,.3,0,.5c0,.2,0,.3,0,.5s0,.3,0,.5c0,.2,0,.3,0,.5s0,.3,0,.5c0,.2,0,.3,0,.5s0,.3,0,.5c0,.2,0,.3,0,.5s0,.3,0,.5c0,.2,0,.3,0,.5s0,.3,0,.5c0,.2,0,.3,0,.5s0,.3,0,.5c0,.2,0,.3,0,.5s0,.3,0,.5c0,.2,0,.3,0,.5s0,.3,0,.5c0,.2,0,.3,0,.5s0,.3,0,.5c0,.2,0,.3,0,.5s0,.3,0,.5c0,.2,0,.3,0,.5s0,.3,0,.5c0,.2,0,.3,0,.5s0,.3,0,.5c0,.2,0,.3,0,.5s0,.3,0,.5c0,.2,0,.3,0,.5s0,.3,0,.5c0,.2,0,.3,0,.5s0,.3,0,.5c0,.2,0,.3,0,.5s0,.3,0,.5c0,.2,0,.3,0,.5s0,.3,0,.5c0,.2,0,.3,0,.5s0,.3,0,.5c0,.2,0,.3,0,.5s0,.3,0,.5c0,.2,0,.3,0,.5s0,.3,0,.5c0,.2,0,.3,0,.5s0,.3,0,.5c0,.2,0,.3,0,.5s0,.3,0,.5c0,.2,0,.3,0,.5,0,14.3,11.6,25.9,25.9,25.9s25.9-11.6,25.9-25.9,0-.3,0-.5c0-.2,0-.3,0-.5s0-.3,0-.5c0-.2,0-.3,0-.5s0-.3,0-.5c0-.2,0-.3,0-.5s0-.3,0-.5c0-.2,0-.3,0-.5s0-.3,0-.5c0-.2,0-.3,0-.5s0-.3,0-.5c0-.2,0-.3,0-.5s0-.3,0-.5c0-.2,0-.3,0-.5s0-.3,0-.5c0-.2,0-.3,0-.5s0-.3,0-.5c0-.2,0-.3,0-.5s0-.3,0-.5c0-.2,0-.3,0-.5s0-.3,0-.5c0-.2,0-.3,0-.5s0-.3,0-.5c0-.2,0-.3,0-.5s0-.3,0-.5c0-.2,0-.3,0-.5s0-.3,0-.5h0c0,0,.2.2.3.2.2.2.5.5.7.7.2.2.5.5.7.7.2.2.5.5.7.7.2.2.5.5.7.7.2.2.5.5.7.7.2.2.5.5.7.7.2.2.5.5.7.7.2.2.5.5.7.7.2.2.5.5.7.7.2.2.5.5.7.7.2.2.5.5.7.7.2.2.5.5.7.7.2.2.5.5.7.7.2.2.5.5.7.7.2.2.5.5.7.7.2.2.5.5.7.7.2.2.5.5.7.7.2.2.5.5.7.7.2.2.5.5.7.7.2.2.5.5.7.7.2.2.5.5.7.7.2.2.5.5.7.7.2.2.5.5.7.7.2.2.5.5.7.7.2.2.5.5.7.7.2.2.5.5.7.7.2.2.5.5.7.7.2.2.5.5.7.7.2.2.5.5.7.7.2.2.5.5.7.7.2.2.5.5.7.7.2.2.5.5.7.7.2.2.5.5.7.7.2.2.5.5.7.7.2.2.5.5.7.7.2.2.5.5.7.7.2.2.5.5.7.7.2.2.5.5.7.7.2.2.5.5.7.7.2.2.5.5.7.7.2.2.5.5.7.7.2.2.5.5.7.7.2.2.5.5.7.7.2.2.5.5.7.7,4.7,4.9,11.3,7.9,18.6,7.9,14.3,0,25.9-11.6,25.9-25.9s0-.3,0-.5c0-.2,0-.3,0-.5s0-.3,0-.5c0-.2,0-.3,0-.5s0-.3,0-.5c0-.2,0-.3,0-.5s0-.3,0-.5c0-.2,0-.3,0-.5s0-.3,0-.5c0-.2,0-.3,0-.5s0-.3,0-.5c0-.2,0-.3,0-.5s0-.3,0-.5c0-.2,0-.3,0-.5s0-.3,0-.5c0-.2,0-.3,0-.5s0-.3,0-.5c0-.2,0-.3,0-.5s0-.3,0-.5c0-.2,0-.3,0-.5s0-.3,0-.5c0-.2,0-.3,0-.5s0-.3,0-.5c0-.2,0-.3,0-.5s0-.3,0-.5c0-.2,0-.3,0-.5s0-.3,0-.5c0-.2,0-.3,0-.5s0-.3,0-.5c0-.2,0-.3,0-.5s0-.3,0-.5c0-.2,0-.3,0-.5s0-.3,0-.5c0-.2,0-.3,0-.5s0-.3,0-.5c0-.2,0-.3,0-.5s0-.3,0-.5c0-.2,0-.3,0-.5s0-.3,0-.5c0-.2,0-.3,0-.5s0-.3,0-.5c0-.2,0-.3,0-.5s0-.3,0-.5c0-.2,0-.3,0-.5s0-.3,0-.5c0-.2,0-.3,0-.5s0-.3,0-.5c0-.2,0-.3,0-.5s0-.3,0-.5c0-.2,0-.3,0-.5s0-.3,0-.5c0-.2,0-.3,0-.5s0-.3,0-.5c0-.2,0-.3,0-.5s0-.3,0-.5c0-.2,0-.3,0-.5s0-.3,0-.5c0-.2,0-.3,0-.5s0-.3,0-.5c0-.2,0-.3,0-.5s0-.3,0-.5c0-.2,0-.3,0-.5s0-.3,0-.5c0-.2,0-.3,0-.5s0-.3,0-.5c0-.2,0-.3,0-.5s0-.3,0-.5c0-.2,0-.3,0-.5s0-.3,0-.5c0-.2,0-.3,0-.5s0-.3,0-.5c0-.2,0-.3,0-.5s0-.3,0-.5c0-.2,0-.3,0-.5s0-.3,0-.5c0-.2,0-.3,0-.5s0-.3,0-.5c0-.2,0-.3,0-.5s0-.3,0-.5c0-.2,0-.3,0-.5s0-.3,0-.5c0-.2,0-.3,0-.5s0-.3,0-.5c0-.2,0-.3,0-.5s0-.3,0-.5c0-.2,0-.3,0-.5s0-.3,0-.5c0-.2,0-.3,0-.5s0-.3,0-.5c0-.2,0-.3,0-.5s0-.3,0-.5c0-.2,0-.3,0-.5s0-.3,0-.5c0-.2,0-.3,0-.5s0-.3,0-.5c0-.2,0-.3,0-.5s0-.3,0-.5c0-.2,0-.3,0-.5s0-.3,0-.5c0-.2,0-.3,0-.5s0-.3,0-.5c0-.2,0-.3,0-.5s0-.3,0-.5c0-.2,0-.3,0-.5s0-.3,0-.5c0-.2,0-.3,0-.5s0-.3,0-.5c0-.2,0-.3,0-.5s0-.3,0-.5c0-.2,0-.3,0-.5s0-.3,0-.5c0-.2,0-.3,0-.5s0-.3,0-.5c0-.2,0-.3,0-.5s0-.3,0-.5c0-.2,0-.3,0-.5s0-.3,0-.5c0-.2,0-.3,0-.5s0-.3,0-.5c0-.2,0-.3,0-.5s0-.3,0-.5c0-.2,0-.3,0-.5s0-.3,0-.5c0-.2,0-.3,0-.5s0-.3,0-.5c0-.2,0-.3,0-.5s0-.3,0-.5c0-.2,0-.3,0-.5s0-.3,0-.5c0-.2,0-.3,0-.5s0-.3,0-.5c0-.2,0-.3,0-.5s0-.3,0-.5c0-.2,0-.3,0-.5s0-.3,0-.5c0-.2,0-.3,0-.5s0-.3,0-.5c0-.2,0-.3,0-.5s0-.3,0-.5c0-.2,0-.3,0-.5s0-.3,0-.5c0-.2,0-.3,0-.5s0-.3,0-.5c0-.2,0-.3,0-.5s0-.3,0-.5c0-.2,0-.3,0-.5s0-.3,0-.5c0-.2,0-.3,0-.5s0-.3,0-.5c0-.2,0-.3,0-.5s0-.3,0-.5h0Z"/>
  <path class="cls-1" d="M-740.4,535.4c-5.7-9.8-13.5-17.5-23.3-23.3-9.8-5.7-20.5-8.6-32-8.6h-31.9c-1.1,0-2.2,0-3.3.1-.9-.1-1.8-.1-2.7-.1-14.3,0-25.9,11.6-25.9,25.9s0,1.8.1,2.7c0,1.1-.1,2.2-.1,3.3v63.8c0,1.1,0,2.3,0,3.4,0,.8-.1,1.7-.1,2.6,0,14.3,11.6,25.9,25.9,25.9s1.2,0,1.7,0c1.4,0,2.9,0,4.3,0h31.9c11.5,0,22.2-2.9,32-8.6,9.8-5.7,17.5-13.5,23.3-23.3,5.7-9.8,8.6-20.5,8.6-32s-2.9-22.2-8.6-32h0ZM-789.4,584.2l-29.6-29.6,3.9-3.9,29.6,29.6-3.9,3.9Z"/>
  <path class="cls-1" d="M825,440.2c-5.4-5.4-12.5-7.9-19.5-7.5-6.2.3-12.3,2.8-17.1,7.5l-19.7,19.7-19.7-19.7c-4.7-4.7-10.9-7.3-17.1-7.5-7-.3-14.1,2.2-19.5,7.5-10.1,10.1-10.1,26.5,0,36.6l28.9,28.9v28.7c0,14.3,11.6,25.9,25.9,25.9s14.4-3.3,19.1-8.4c4.2-4.6,6.8-10.7,6.8-17.4v-25.7l31.9-31.9c10.1-10.1,10.1-26.5,0-36.6Z"/>
</svg>